<svg width="70" height="70" viewBox="0 0 70 70" fill="none" xmlns="http://www.w3.org/2000/svg">
<path d="M70 35C70 54.33 54.33 70 35 70C15.67 70 0 54.33 0 35C0 15.67 15.67 0 35 0C54.33 0 70 15.67 70 35Z" fill="white"/>
<path fill-rule="evenodd" clip-rule="evenodd" d="M35 62.7083C50.3029 62.7083 62.7083 50.3029 62.7083 35C62.7083 19.6971 50.3029 7.29167 35 7.29167C19.6971 7.29167 7.29167 19.6971 7.29167 35C7.29167 50.3029 19.6971 62.7083 35 62.7083ZM35 65.625C51.9137 65.625 65.625 51.9137 65.625 35C65.625 18.0863 51.9137 4.375 35 4.375C18.0863 4.375 4.375 18.0863 4.375 35C4.375 51.9137 18.0863 65.625 35 65.625Z" fill="#2E476C"/>
<path fill-rule="evenodd" clip-rule="evenodd" d="M24.4574 50.2787L25.7595 47.6688C26.343 47.9599 27.0022 48.125 27.7083 48.125H31.9976V51.0417H27.7083C26.5402 51.0417 25.4362 50.767 24.4574 50.2787ZM38.0024 51.0417V48.125H42.2917C42.9978 48.125 43.657 47.9599 44.2405 47.6688L45.5426 50.2787C44.5638 50.767 43.4598 51.0417 42.2917 51.0417H38.0024ZM49.5833 32.4265H46.6667V27.7083C46.6667 27.0022 46.5015 26.343 46.2104 25.7595L48.8203 24.4574C49.3086 25.4362 49.5833 26.5402 49.5833 27.7083V32.4265ZM31.9976 20.4167H27.7083C26.5402 20.4167 25.4362 20.6914 24.4574 21.1797L25.7595 23.7896C26.343 23.4985 27.0022 23.3333 27.7083 23.3333H31.9976V20.4167ZM20.4167 39.0319H23.3333V43.75C23.3333 44.4561 23.4985 45.1153 23.7896 45.6988L21.1797 47.0009C20.6914 46.0221 20.4167 44.9181 20.4167 43.75V39.0319ZM20.4167 32.4265H23.3333V27.7083C23.3333 27.0022 23.4985 26.343 23.7896 25.7595L21.1797 24.4574C20.6914 25.4362 20.4167 26.5402 20.4167 27.7083V32.4265ZM38.0024 20.4167V23.3333H42.2917C42.9978 23.3333 43.657 23.4985 44.2405 23.7896L45.5426 21.1797C44.5638 20.6914 43.4598 20.4167 42.2917 20.4167H38.0024ZM49.5833 39.0319H46.6667V43.75C46.6667 44.4561 46.5015 45.1153 46.2104 45.6988L48.8203 47.0009C49.3086 46.0221 49.5833 44.9181 49.5833 43.75V39.0319Z" fill="#2E476C"/>
<path d="M40.8333 36.4583C40.8333 39.68 38.2217 42.2917 35 42.2917C31.7783 42.2917 29.1667 39.68 29.1667 36.4583C29.1667 33.2367 31.7783 30.625 35 30.625C38.2217 30.625 40.8333 33.2367 40.8333 36.4583Z" fill="#2E476C"/>
</svg>
